# xmcd
#
# Track frame offsets: 
#        150
#        37893
#        55933
#        83445
#        114166
#        167149
#        183710
#        201583
#        231125
#        263464
#        282811
#        308473
#        315628
#
# Disc length: 4464 seconds
#
# Revision: 0
# Processed by: cddbd v1.5.2PL0 Copyright (c) Steve Scherf et al.
# Submitted via: ExactAudioCopy v0.99pb4
#
DISCID=a1116e0d
DTITLE=Howie Day - Live at The Ark 3.18.09
DYEAR=2009
DGENRE=Acoustic
TTITLE0=Sorry So Sorry
TTITLE1=Brace Yourself
TTITLE2=No Longer What You Require
TTITLE3=Disco (Afternoon)
TTITLE4=Ghost
TTITLE5=banter 1
TTITLE6=Don't Dream It's Over
TTITLE7=banter 2
TTITLE8=Bunnies
TTITLE9=Numbness For Sound
TTITLE10=Collide
TTITLE11=banter 3
TTITLE12=Madrigals
EXTD=
EXTT0=
EXTT1=
EXTT2=
EXTT3=
EXTT4=
EXTT5=
EXTT6=
EXTT7=
EXTT8=
EXTT9=
EXTT10=
EXTT11=
EXTT12=
PLAYORDER=
